<svg width="546" height="524" viewBox="0 0 546 524" fill="none" xmlns="http://www.w3.org/2000/svg">
    <g clip-path="url(#clip0_617_2178)">
        <path d="M491.304 507.168C493.37 507.297 494.512 504.73 492.949 503.234L492.794 502.616C492.814 502.567 492.835 502.517 492.855 502.468C494.945 497.486 502.025 497.52 504.097 502.509C505.935 506.938 508.276 511.373 508.852 516.055C509.111 518.122 508.995 520.228 508.536 522.256C512.844 512.845 515.111 502.569 515.111 492.235C515.111 489.639 514.969 487.042 514.678 484.452C514.439 482.334 514.11 480.228 513.684 478.142C511.378 466.865 506.385 456.124 499.184 447.152C495.722 445.26 492.835 442.302 491.091 438.756C490.464 437.477 489.973 436.101 489.741 434.7C490.135 434.751 491.226 428.751 490.929 428.383C491.478 427.55 492.461 427.135 493.061 426.322C496.043 422.279 500.152 422.985 502.297 428.48C506.879 430.792 506.923 434.628 504.112 438.317C502.323 440.663 502.077 443.839 500.508 446.351C500.669 446.558 500.837 446.758 500.999 446.965C503.96 450.763 506.521 454.845 508.68 459.134C508.069 454.367 508.97 448.625 510.506 444.924C512.254 440.707 515.531 437.155 518.416 433.509C521.882 429.13 528.99 431.041 529.6 436.592C529.606 436.646 529.612 436.7 529.618 436.753C529.189 436.995 528.769 437.252 528.359 437.523C526.02 439.071 526.828 442.697 529.6 443.125L529.663 443.135C529.508 444.678 529.243 446.209 528.856 447.714C532.557 462.03 524.566 467.244 513.154 467.478C512.902 467.607 512.657 467.737 512.405 467.859C513.561 471.115 514.485 474.454 515.169 477.838C515.783 480.829 516.209 483.851 516.448 486.887C516.745 490.717 516.719 494.567 516.396 498.39L516.416 498.255C517.236 494.044 519.523 490.11 522.842 487.384C527.788 483.322 534.775 481.826 540.111 478.56C542.679 476.988 545.97 479.02 545.522 481.997L545.5 482.14C544.706 482.463 543.931 482.837 543.181 483.257C542.753 483.499 542.333 483.756 541.923 484.027C539.583 485.574 540.392 489.201 543.164 489.629L543.227 489.639C543.272 489.645 543.311 489.652 543.356 489.658C541.993 492.894 540.094 495.897 537.717 498.487C535.403 510.984 525.461 512.17 514.827 508.531H514.82C513.658 513.595 511.959 518.542 509.776 523.257H491.756C491.691 523.057 491.633 522.85 491.575 522.65C493.241 522.753 494.921 522.656 496.561 522.353C495.224 520.712 493.887 519.059 492.55 517.418C492.518 517.386 492.492 517.354 492.466 517.321C491.788 516.482 491.104 515.649 490.425 514.809L490.425 514.808C490.383 512.23 490.692 509.661 491.304 507.168L491.304 507.168V507.168Z" fill="#F2F2F2"/>
        <path d="M159.753 522.311C159.753 522.971 160.283 523.501 160.943 523.501H544.233C544.893 523.501 545.423 522.971 545.423 522.311C545.423 521.651 544.893 521.121 544.233 521.121H160.943C160.283 521.121 159.753 521.651 159.753 522.311V522.311Z" fill="#CCCCCC"/>
        <path d="M217.914 522.994H41.4889C19.977 522.994 2.47559 505.492 2.47559 483.98V104.831C2.47559 83.3188 19.977 65.8174 41.4889 65.8174H217.914C239.425 65.8174 256.927 83.3188 256.927 104.831V483.98C256.927 505.492 239.425 522.994 217.914 522.994V522.994Z" fill="#3F3D56"/>
        <path d="M256.927 205.281C256.017 205.281 255.276 206.021 255.276 206.931V259.746C255.276 260.656 256.017 261.396 256.927 261.396C257.837 261.396 258.577 260.656 258.577 259.746V206.931C258.577 206.021 257.837 205.281 256.927 205.281Z" fill="#3F3D56"/>
        <path d="M253.213 104.831V483.973C253.213 502.698 238.64 518.014 220.213 519.202H220.204C219.932 519.219 219.66 519.235 219.379 519.244C218.892 519.268 218.405 519.277 217.91 519.277C217.91 519.277 216.095 519.145 212.777 518.897C209.427 518.649 204.55 518.278 198.468 517.791C196.644 517.651 194.721 517.494 192.691 517.329C188.648 516.999 184.208 516.636 179.446 516.223C177.548 516.066 175.584 515.893 173.579 515.72C163.33 514.837 151.851 513.805 139.745 512.633C137.698 512.444 135.635 512.246 133.556 512.039C133.011 511.982 132.458 511.932 131.905 511.874C123.273 511.024 6.18945 488.397 6.18945 483.973V104.831C6.18945 85.331 21.9926 69.5278 41.4927 69.5278H62.569C65.9359 69.5278 68.6426 72.1521 68.9315 75.5107C68.9562 75.7336 68.981 75.9563 69.0223 76.1792C69.6329 79.5544 72.7275 81.9062 76.1604 81.9062H183.242C186.675 81.9062 189.77 79.5544 190.381 76.1792C190.422 75.9563 190.447 75.7336 190.471 75.5107C190.76 72.1521 193.467 69.5278 196.834 69.5278H217.91C237.41 69.5278 253.213 85.331 253.213 104.831V104.831Z" fill="white"/>
        <path d="M1.65045 165.67C0.7402 165.67 0 166.41 0 167.32V180.524C0 181.434 0.74021 182.174 1.65045 182.174C2.56069 182.174 3.3009 181.434 3.3009 180.524V167.32C3.3009 166.41 2.56069 165.67 1.65045 165.67Z" fill="#3F3D56"/>
        <path d="M1.65045 205.281C0.7402 205.281 0 206.021 0 206.931V232.513C0 233.424 0.74021 234.164 1.65045 234.164C2.56069 234.164 3.3009 233.423 3.3009 232.513V206.931C3.3009 206.021 2.56069 205.281 1.65045 205.281Z" fill="#3F3D56"/>
        <path d="M1.65045 241.591C0.7402 241.591 0 242.331 0 243.241V268.823C0 269.734 0.74021 270.474 1.65045 270.474C2.56069 270.474 3.3009 269.734 3.3009 268.823V243.241C3.3009 242.331 2.56069 241.591 1.65045 241.591V241.591Z" fill="#3F3D56"/>
        <path d="M61.9947 75.3076H30.4313C30.26 75.3076 30.1211 75.4465 30.1211 75.6178V79.1235C30.1211 79.2949 30.26 79.4338 30.4313 79.4338H61.9947C62.1661 79.4338 62.3049 79.2949 62.3049 79.1235V75.6178C62.3049 75.4465 62.1661 75.3076 61.9947 75.3076Z" fill="#E6E6E6"/>
        <path d="M202.049 79.4339C203.872 79.4339 205.35 77.956 205.35 76.1329C205.35 74.3099 203.872 72.832 202.049 72.832C200.226 72.832 198.748 74.3099 198.748 76.1329C198.748 77.956 200.226 79.4339 202.049 79.4339Z" fill="#E6E6E6"/>
        <path d="M211.127 79.4339C212.95 79.4339 214.428 77.956 214.428 76.1329C214.428 74.3099 212.95 72.832 211.127 72.832C209.304 72.832 207.826 74.3099 207.826 76.1329C207.826 77.956 209.304 79.4339 211.127 79.4339Z" fill="#E6E6E6"/>
        <path d="M220.204 79.4339C222.027 79.4339 223.505 77.956 223.505 76.1329C223.505 74.3099 222.027 72.832 220.204 72.832C218.381 72.832 216.903 74.3099 216.903 76.1329C216.903 77.956 218.381 79.4339 220.204 79.4339Z" fill="#E6E6E6"/>
        <path d="M199.289 298.516H59.2891C57.0835 298.516 55.2891 296.721 55.2891 294.516C55.2891 292.31 57.0835 290.516 59.2891 290.516H199.289C201.495 290.516 203.289 292.31 203.289 294.516C203.289 296.721 201.495 298.516 199.289 298.516Z" fill="#E6E6E6"/>
        <path d="M129.791 453.516C161.824 453.516 187.791 427.548 187.791 395.516C187.791 363.483 161.824 337.516 129.791 337.516C97.7585 337.516 71.791 363.483 71.791 395.516C71.791 427.548 97.7585 453.516 129.791 453.516Z" fill="#1566CE"/>
        <path d="M139.009 376.578C134.114 376.779 128.58 377.115 124.962 380.871C121.819 384.134 121.13 388.977 124.318 392.46C127.513 395.953 132.482 396.426 136.166 399.151C140.492 402.35 139.858 408.68 135.672 411.712C130.736 415.288 124.363 413.621 119.85 410.219C118.694 409.347 117.572 411.3 118.715 412.162C122.758 415.21 128.033 416.907 133.032 415.448C137.544 414.132 141.041 410.453 141.397 405.668C141.566 403.385 140.917 401.067 139.497 399.264C137.998 397.361 135.839 396.19 133.656 395.237C129.899 393.596 123.43 391.474 124.522 386.133C125.846 379.659 133.726 379.045 139.009 378.828C140.452 378.769 140.459 376.519 139.009 376.578L139.009 376.578Z" fill="white"/>
        <path d="M129.928 373.516L129.712 422.909C129.706 424.357 131.956 424.359 131.962 422.909L132.178 373.516C132.184 372.068 129.934 372.066 129.928 373.516Z" fill="white"/>
        <path d="M437.085 0H151.125C140.635 0 132.105 8.52997 132.105 19.02V214.98C132.105 225.47 140.635 234 151.125 234H437.085C447.575 234 456.105 225.47 456.105 214.98V19.02C456.105 8.52997 447.575 0 437.085 0Z" fill="white"/>
        <path d="M292.791 116.516C310.464 116.516 324.791 102.189 324.791 84.5156C324.791 66.8425 310.464 52.5156 292.791 52.5156C275.118 52.5156 260.791 66.8425 260.791 84.5156C260.791 102.189 275.118 116.516 292.791 116.516Z" fill="#1566CE"/>
        <path d="M298.861 70.2357C294.9 70.3989 290.441 70.65 287.444 73.5978C284.962 76.0396 284.094 79.8409 286.375 82.7159C288.777 85.7429 292.77 86.3173 295.905 88.2516C297.853 89.4539 299.144 91.2752 299.186 93.6159C299.225 95.8073 298.214 97.8547 296.523 99.2281C292.375 102.598 286.718 101.203 282.794 98.2559C282.022 97.6761 281.273 98.9778 282.037 99.5511C285.287 101.992 289.472 103.409 293.516 102.359C297.238 101.393 300.237 98.4642 300.64 94.5511C301.065 90.4269 298.357 87.6187 294.846 86.0076C291.636 84.535 286.007 82.966 286.538 78.3911C287.212 72.5745 294.333 71.9223 298.861 71.7356C299.823 71.696 299.828 70.1958 298.861 70.2356V70.2357Z" fill="white"/>
        <path d="M291.978 67.516L291.798 108.674C291.794 109.639 293.294 109.641 293.298 108.674L293.478 67.516C293.482 66.5506 291.982 66.5494 291.978 67.516Z" fill="white"/>
        <path d="M437.085 0H151.125C140.635 0 132.105 8.52997 132.105 19.02V214.98C132.105 225.47 140.635 234 151.125 234H437.085C447.575 234 456.105 225.47 456.105 214.98V19.02C456.105 8.52997 447.575 0 437.085 0ZM454.105 214.98C454.105 224.37 446.475 232 437.085 232H151.125C141.735 232 134.105 224.37 134.105 214.98V19.02C134.105 9.63001 141.735 2 151.125 2H437.085C446.475 2 454.105 9.63 454.105 19.02V214.98Z" fill="#3F3D56"/>
        <path d="M261.136 19.3501H233.076C231.666 19.3501 230.516 20.5001 230.516 21.9101C230.516 23.3301 231.666 24.4801 233.076 24.4801H261.136C262.546 24.4801 263.696 23.3301 263.696 21.9101C263.696 20.5001 262.546 19.3501 261.136 19.3501Z" fill="#E6E6E6"/>
        <path d="M308.136 19.3501H280.076C278.666 19.3501 277.516 20.5001 277.516 21.9101C277.516 23.3301 278.666 24.4801 280.076 24.4801H308.136C309.546 24.4801 310.696 23.3301 310.696 21.9101C310.696 20.5001 309.546 19.3501 308.136 19.3501Z" fill="#E6E6E6"/>
        <path d="M355.136 19.3501H327.076C325.666 19.3501 324.516 20.5001 324.516 21.9101C324.516 23.3301 325.666 24.4801 327.076 24.4801H355.136C356.546 24.4801 357.696 23.3301 357.696 21.9101C357.696 20.5001 356.546 19.3501 355.136 19.3501Z" fill="#E6E6E6"/>
        <path d="M401.415 134.516H186.795C177.865 134.516 170.605 141.776 170.605 150.706V165.326C170.605 174.256 177.865 181.516 186.795 181.516H401.415C410.345 181.516 417.605 174.256 417.605 165.326V150.706C417.605 141.776 410.345 134.516 401.415 134.516Z" fill="#1566CE"/>
        <path d="M73.1791 211.492L64.9492 207.593C68.3248 212.304 71.2334 219.661 72.7906 225.516C75.4271 220.062 79.6773 213.39 83.8843 209.404L75.1862 211.641C80.546 185.373 100.705 166.516 123.791 166.516V164.516C99.6774 164.516 78.6516 184.163 73.1791 211.492Z" fill="#3F3D56"/>
        <path d="M111.059 251.516H59.0586C56.853 251.516 55.0586 249.721 55.0586 247.516C55.0586 245.31 56.853 243.516 59.0586 243.516H111.059C113.264 243.516 115.059 245.31 115.059 247.516C115.059 249.721 113.264 251.516 111.059 251.516Z" fill="#E6E6E6"/>
        <path d="M456.978 238.488L456.454 279.327L446.292 315.732L438.169 312.702L441.776 279.333L441.302 234.176L456.978 238.488Z" fill="#FFB6B6"/>
        <path d="M446.258 321.603C447.211 316.368 445.464 311.666 442.356 311.1C439.248 310.534 435.955 314.319 435.002 319.554C434.049 324.789 435.796 329.491 438.904 330.057C442.012 330.623 445.305 326.838 446.258 321.603Z" fill="#FFB6B6"/>
        <path d="M444.648 189.861C444.648 189.861 462.055 190.101 462.04 199.348C462.032 204.569 460.911 251.971 457.791 280.768C455.384 302.974 450.791 308.768 450.791 308.768L439.791 283.768L444.648 189.861V189.861Z" fill="#E6E6E6"/>
        <path d="M444.2 273.299H385.413C390.34 262.304 393.369 251.832 388.634 243.502L444.2 240.281C441.423 251.526 441.084 262.561 444.2 273.299Z" fill="#FFB6B6"/>
        <path d="M436.952 175.856L413.598 174.246L403.935 186.325L399.036 187.216C391.692 188.551 386.462 195.105 386.79 202.562L388.696 245.874L444.517 249.945L457.89 193.543L441.784 187.131L436.952 175.856V175.856Z" fill="#E6E6E6"/>
        <path d="M294.53 188.922C296.187 190.413 297.37 192.154 297.995 193.843L314.676 207.045L308.162 214.799L291.942 200.571C290.196 200.128 288.34 199.135 286.683 197.645C282.898 194.24 281.586 189.527 283.753 187.118C285.92 184.709 290.745 185.517 294.53 188.922L294.53 188.922Z" fill="#FFB6B6"/>
        <path d="M412.467 200.037V200.037L348.551 243.196L302.734 211.312L309.613 198.852L345.673 219.809L378.928 194.275C390.77 183.151 405.611 185.307 412.467 200.037H412.467Z" fill="#E6E6E6"/>
        <path d="M423.89 170.628C433.459 170.628 441.216 162.871 441.216 153.303C441.216 143.734 433.459 135.977 423.89 135.977C414.322 135.977 406.564 143.734 406.564 153.303C406.564 162.871 414.322 170.628 423.89 170.628Z" fill="#FFB6B6"/>
        <path d="M447.44 149.046V152.406L427.9 146.906L413.25 149.976C413.08 147.746 412.42 145.556 411.32 143.616C412.086 146.728 412.171 149.135 411.36 150.376L409.39 150.786C409.07 149.916 408.45 149.156 407.64 148.696C407.56 148.646 407.46 148.606 407.37 148.636C407.23 148.686 407.22 148.866 407.22 149.006C407.24 149.746 407.26 150.486 407.29 151.226L401.63 152.406V149.046C396.2 136.828 410.512 126.256 424.54 126.146C430.87 126.097 436.59 128.706 440.74 132.846C444.88 136.996 447.44 142.716 447.44 149.046V149.046Z" fill="#2F2E41"/>
        <path d="M458.433 188.444L456.957 188.322C457.062 187.84 457.167 187.363 457.263 186.881C458.081 182.831 456.281 177.676 456.149 173.785C455.454 177.896 456.642 182.953 455.413 186.856C455.276 187.29 449.937 190.088 449.791 190.516C443.881 188.355 437.727 181.45 430.759 185.483C426.638 187.868 421.935 186.823 417.256 185.731C416.098 185.46 415.937 179.741 414.791 179.516C412.738 179.113 409.723 184.313 407.791 184.516L415.791 153.516C415.791 136.652 414.228 118.959 435.591 124.922C440.963 126.421 446.281 127.597 450.246 132.031C454.212 136.472 457.035 142.677 458.035 149.744C458.639 154.008 462.403 168.483 458.433 188.444V188.444Z" fill="#2F2E41"/>
        <path d="M444.638 500.181L435.101 500.406L429.785 457.562L443.859 457.229L444.638 500.181Z" fill="#FFB7B7"/>
        <path d="M411.919 520.077C411.919 521.688 413.062 522.994 414.473 522.994H433.402C433.402 522.994 435.265 515.506 442.86 512.284L443.384 522.994H453.149L451.966 505.772C451.966 505.772 454.578 496.558 449.153 491.848C443.728 487.139 448.122 487.794 448.122 487.794L445.988 477.135L431.232 478.87L431.123 495.603L423.962 512.211L413.459 517.399C412.524 517.861 411.919 518.913 411.919 520.077H411.919H411.919Z" fill="#2F2E41"/>
        <path d="M415.624 493.199L406.457 495.836L390.443 455.744L403.971 451.85L415.624 493.199Z" fill="#FFB7B7"/>
        <path d="M389.025 520.746C389.434 522.304 390.871 523.278 392.235 522.92L410.545 518.116C410.545 518.116 410.447 510.401 416.975 505.357L420.2 515.583L429.645 513.105L424.131 496.747C424.131 496.747 424.319 487.172 417.877 483.993C411.434 480.814 415.851 480.334 415.851 480.334L411.082 470.565L397.249 475.988L401.39 492.2L398.678 510.082L389.835 517.766C389.048 518.449 388.73 519.621 389.025 520.746L389.025 520.746L389.025 520.746Z" fill="#2F2E41"/>
        <path d="M438.79 270.768L444.79 272.768C454.171 290.093 458.149 313.101 457.622 340.846L446.964 465.457H429.527L416.767 326.635L394.267 378.74L410.729 465.457L394.267 467.136L361.109 376.964L384.201 272.162L438.79 270.768V270.768Z" fill="#2F2E41"/>
    </g>
    <defs>
        <clipPath id="clip0_617_2178">
            <rect width="545.563" height="523.501" fill="white"/>
        </clipPath>
    </defs>
</svg>
