<svg width="635" height="734" viewBox="0 0 635 734" fill="none" xmlns="http://www.w3.org/2000/svg">
    <path d="M375.22 33.32L317.5 0L259.78 33.32L232.43 49.11L230.91 49.99V395.47H346.36V649.91L317.5 666.57L288.64 649.91V453.2H230.91V683.23L232.43 684.11L259.78 699.9L288.64 716.56L317.5 733.22L346.36 716.56L375.22 699.9L402.57 684.11L404.09 683.23V337.75H288.64V83.31L317.5 66.65L346.36 83.31V280.02H404.09V49.99L402.57 49.11L375.22 33.32Z" fill="white"/>
    <path d="M635 183.3L606.13 166.61L602.5 164.61L577.23 150.02L548.41 133.31L519.55 116.61L502.55 106.8L490.67 99.9398L461.81 83.2798V649.9L490.67 633.24L502.55 626.38L519.55 616.57L548.41 599.91L577.27 583.25L602.5 568.66L606.09 566.58L634.96 549.92V383.28L606.13 366.61L635 349.94V183.3ZM577.27 516.61L548.4 533.26L519.55 549.92V416.61L548.41 399.95L577.27 416.61V516.61ZM577.27 316.61L548.41 333.27L519.55 316.61V183.3L548.4 199.96L577.27 216.61V316.61Z" fill="white"/>
    <path d="M132.44 106.84L115.45 116.65L86.59 133.31L57.73 149.97L32.46 164.56L28.87 166.64L0 183.3V395.47H115.45V486.44L115.5 486.47V544.2L57.5 511.01V453.28L57.73 453.42V453.2H0V549.92L28.87 566.58L32.46 568.66L36.98 571.27L57.5 583.12L57.73 583.25L86.59 599.91L115.45 616.57L115.5 616.6L132.44 626.38L144.32 633.24L173.18 649.9V337.75H57.73V216.63L86.6 199.96L115.45 183.3V280.02H173.18V83.3198L144.32 99.9798L132.44 106.84Z" fill="white"/>
</svg>
